<?xml version="1.0" encoding="UTF-8"?><svg id="Layer_2" xmlns="http://www.w3.org/2000/svg" viewBox="0 0 292.47 512.48"><defs><style>.cls-1{stroke-miterlimit:10.08;stroke-width:14.67px;}.cls-1,.cls-2{fill:none;}.cls-1,.cls-2,.cls-3{stroke:#59f;}.cls-1,.cls-3{stroke-linecap:round;}.cls-4{isolation:isolate;opacity:.1;}.cls-4,.cls-3,.cls-5{fill-rule:evenodd;}.cls-2{stroke-width:5px;}.cls-2,.cls-3{stroke-linejoin:round;}.cls-3{fill:#393366;stroke-width:14.74px;}.cls-5{fill:#59f;}</style></defs><g id="svg2457"><g id="g2305"><path id="path2080" class="cls-5" d="m6.23,0C2.79,0,0,2.79,0,6.24v500c0,3.44,2.79,6.24,6.23,6.24h280c3.44,0,6.24-2.79,6.24-6.23h0V6.24c0-3.44-2.79-6.24-6.24-6.24H6.23Zm6.24,12.48h267.53v487.53H12.47V12.48Z"/><path id="path2082" class="cls-2" d="m26.23,446.24V66.24h240v380H26.23Z"/><path id="path2084" class="cls-4" d="m1.75,510.56h0l.11.11s-.07-.08-.11-.11h0Z"/><g id="g2162"><g id="g2158"><path id="path2154" class="cls-3" d="m121.8,256.24l-42.25-33.99"/><path id="path2156" class="cls-3" d="m121.8,256.24l-42.25,33.99"/></g><path id="path2160" class="cls-1" d="m137.82,290.23h75.12"/></g></g></g></svg>